# 3ds Max Wavefront OBJ Exporter v0.97b - (c)2007 guruware
# File Created: 14.04.2020 03:15:31

#
# object SM_Door_Frame_Main
#

v  0.5174 2.1159 -0.0656
v  0.5172 0.0000 -0.0507
v  0.5171 0.0000 -0.0656
v  0.5175 2.1159 -0.0507
v  -0.5173 2.1160 -0.0507
v  -0.5174 2.1160 -0.0656
v  -0.5173 0.0001 -0.0507
v  -0.5174 0.0001 -0.0656
v  -0.5173 0.0000 0.0641
v  -0.5176 2.1159 0.0641
v  -0.5176 2.1159 0.0493
v  -0.5173 0.0000 0.0493
v  -0.4001 1.9987 -0.0542
v  -0.4007 0.0000 0.0527
v  -0.4001 0.0001 -0.0542
v  -0.4000 1.9990 0.0527
v  -0.4138 0.0000 0.0587
v  -0.4132 2.0121 0.0587
v  -0.4982 0.0000 0.0641
v  -0.4984 2.0968 0.0641
v  0.5172 2.1160 0.0493
v  0.5172 2.1160 0.0641
v  0.3999 1.9990 -0.0542
v  0.4000 1.9987 0.0527
v  0.4131 2.0119 0.0587
v  0.4981 2.0968 0.0641
v  0.5172 0.0001 0.0641
v  0.5172 0.0001 0.0493
v  0.4005 0.0000 -0.0542
v  0.4000 0.0001 0.0527
v  0.4131 0.0001 0.0587
v  0.4981 0.0001 0.0641
v  0.4135 0.0000 -0.0602
v  0.4130 2.0121 -0.0602
v  0.4979 0.0000 -0.0656
v  0.4981 2.0968 -0.0656
v  -0.4134 2.0119 -0.0602
v  -0.4984 2.0968 -0.0656
v  -0.4134 0.0001 -0.0602
v  -0.4984 0.0001 -0.0656
# 40 vertices

vn 0.8932 -0.0001 -0.4497
vn 1.0000 -0.0001 -0.0067
vn 0.0001 0.8940 -0.4480
vn 0.0001 1.0000 -0.0000
vn 0.0001 0.8949 -0.4464
vn -0.8957 0.0000 -0.4448
vn -1.0000 0.0000 0.0067
vn -1.0000 -0.0001 0.0000
vn -0.8950 -0.0001 0.4461
vn 0.5624 -0.3421 -0.7528
vn 1.0000 -0.0000 0.0054
vn 1.0000 0.0000 0.0056
vn 0.5613 -0.3450 0.7523
vn 0.3416 -0.5628 0.7527
vn 0.2442 -0.0001 0.9697
vn 0.4164 -0.0001 0.9092
vn 0.1572 -0.0000 0.9876
vn 0.0319 -0.0000 0.9995
vn 0.0159 0.0000 0.9999
vn -0.0001 0.8939 0.4483
vn 0.0000 0.0000 1.0000
vn -0.0001 1.0000 0.0000
vn -0.0001 0.8950 0.4460
vn -0.3439 -0.5623 -0.7520
vn 0.3405 -0.5633 -0.7528
vn -0.3451 -0.5623 0.7515
vn -0.0001 -0.1572 0.9876
vn -0.5637 -0.3417 0.7520
vn -0.0000 -0.1574 0.9875
vn -0.0000 -0.0159 0.9999
vn 0.0000 -0.0159 0.9999
vn 0.8939 0.0000 0.4484
vn 1.0000 0.0000 0.0000
vn -1.0000 -0.0000 -0.0045
vn -1.0000 0.0000 -0.0047
vn -0.5619 -0.3449 -0.7519
vn -0.2440 0.0000 0.9698
vn -0.1574 0.0000 0.9875
vn -0.4164 0.0000 0.9092
vn -0.0317 0.0000 0.9995
vn -0.0159 0.0000 0.9999
vn -0.2456 -0.0001 -0.9694
vn -0.1577 -0.0000 -0.9875
vn -0.4191 -0.0001 -0.9080
vn -0.0319 -0.0000 -0.9995
vn -0.0159 0.0000 -0.9999
vn 0.0000 0.0000 -1.0000
vn 0.0000 -0.1577 -0.9875
vn 0.0000 -0.1566 -0.9877
vn 0.0000 -0.0159 -0.9999
vn 0.2412 0.0000 -0.9705
vn 0.4112 0.0000 -0.9115
vn 0.1564 0.0000 -0.9877
vn 0.0317 0.0000 -0.9995
vn 0.0159 0.0000 -0.9999
# 55 vertex normals

vt 1.9973 0.9446 0.0000
vt 1.9815 0.0369 0.0000
vt 1.9973 0.0369 0.0000
vt 1.9815 0.9446 0.0000
vt 1.1479 0.9326 0.0000
vt 1.5950 0.9406 0.0000
vt 1.1479 0.9404 0.0000
vt 1.5950 0.9328 0.0000
vt 0.9252 0.9445 0.0000
vt 0.8788 0.0783 0.0000
vt 0.9252 0.0783 0.0000
vt 0.8788 0.9447 0.0000
vt 0.0695 0.9319 0.0000
vt 0.0547 0.0790 0.0000
vt 0.0695 0.0790 0.0000
vt 0.0545 0.9455 0.0000
vt 0.0182 0.0790 0.0000
vt 0.0178 0.9820 0.0000
vt 0.0022 0.9978 0.0000
vt 0.0022 0.0790 0.0000
vt 0.5950 0.9406 0.0000
vt 0.1479 0.9326 0.0000
vt 0.5950 0.9328 0.0000
vt 0.1479 0.9404 0.0000
vt 0.6365 0.9979 0.0000
vt 0.9979 0.9496 0.0000
vt 0.9979 0.9979 0.0000
vt 0.6365 0.9496 0.0000
vt 0.5859 0.9527 0.0000
vt 0.2334 0.9464 0.0000
vt 0.5802 0.9464 0.0000
vt 0.2277 0.9527 0.0000
vt 0.6227 0.9896 0.0000
vt 0.1908 0.9895 0.0000
vt 0.6310 0.9978 0.0000
vt 0.1825 0.9978 0.0000
vt 0.9815 0.9446 0.0000
vt 0.9815 0.0369 0.0000
vt 0.9973 0.9446 0.0000
vt 0.9973 0.0369 0.0000
vt 0.9758 0.9445 0.0000
vt 0.9294 0.0783 0.0000
vt 0.9758 0.0783 0.0000
vt 0.9294 0.9447 0.0000
vt 0.0735 0.9409 0.0000
vt 0.0885 0.0790 0.0000
vt 0.0885 0.9467 0.0000
vt 0.0735 0.0790 0.0000
vt 0.1252 0.0790 0.0000
vt 0.1252 0.9833 0.0000
vt 0.1410 0.0790 0.0000
vt 0.1410 0.9917 0.0000
vt 1.0547 0.0790 0.0000
vt 1.0695 0.9319 0.0000
vt 1.0545 0.9455 0.0000
vt 1.0695 0.0790 0.0000
vt 1.0182 0.0790 0.0000
vt 1.0178 0.9820 0.0000
vt 1.0022 0.9978 0.0000
vt 1.0022 0.0790 0.0000
vt 1.2277 0.9527 0.0000
vt 1.5802 0.9464 0.0000
vt 1.5859 0.9527 0.0000
vt 1.2334 0.9464 0.0000
vt 1.6227 0.9896 0.0000
vt 1.1908 0.9895 0.0000
vt 1.6310 0.9978 0.0000
vt 1.1825 0.9978 0.0000
vt 1.0885 0.0790 0.0000
vt 1.0735 0.9409 0.0000
vt 1.0735 0.0790 0.0000
vt 1.0885 0.9467 0.0000
vt 1.1252 0.0790 0.0000
vt 1.1252 0.9833 0.0000
vt 1.1410 0.0790 0.0000
vt 1.1410 0.9917 0.0000
# 76 texture coords

o SM_Door_Frame_Main
g SM_Door_Frame_Main
s 1
f 1/1/1 2/2/2 3/3/2 
f 2/2/2 1/1/1 4/4/2 
s 2
f 1/5/3 5/6/4 4/7/4 
f 5/6/4 1/5/3 6/8/5 
s 1
f 6/4/6 7/3/7 5/1/7 
f 7/3/7 6/4/6 8/2/7 
f 9/3/8 10/1/9 11/4/8 
f 9/3/8 11/4/8 12/2/8 
f 13/9/10 14/10/11 15/11/12 
f 14/10/11 13/9/10 16/12/13 
s 2
f 16/13/14 17/14/15 14/15/16 
f 17/14/15 16/13/14 18/16/17 
f 18/16/17 19/17/18 17/14/15 
f 19/17/18 18/16/17 20/18/19 
f 10/19/20 9/20/21 20/18/19 
f 19/17/18 20/18/19 9/20/21 
f 21/21/22 10/22/20 22/23/23 
f 10/22/20 21/21/22 11/24/22 
f 23/25/24 16/26/14 13/27/25 
f 16/26/14 23/25/24 24/28/26 
s 1
f 25/29/27 16/30/13 24/31/28 
f 16/30/13 25/29/27 18/32/29 
f 26/33/30 18/32/29 25/29/27 
f 26/33/30 20/34/31 18/32/29 
f 22/35/32 20/34/31 26/33/30 
f 20/34/31 22/35/32 10/36/9 
f 22/37/32 27/38/33 21/39/33 
f 28/40/33 21/39/33 27/38/33 
f 24/41/28 29/42/34 30/43/35 
f 29/42/34 24/41/28 23/44/36 
s 2
f 24/45/26 31/46/37 25/47/38 
f 31/46/37 24/45/26 30/48/39 
f 32/49/40 26/50/41 25/47/38 
f 32/49/40 25/47/38 31/46/37 
f 27/51/21 26/50/41 32/49/40 
f 26/50/41 27/51/21 22/52/23 
f 33/53/42 23/54/24 34/55/43 
f 23/54/24 33/53/42 29/56/44 
f 35/57/45 34/55/43 36/58/46 
f 34/55/43 35/57/45 33/53/42 
f 1/59/3 3/60/47 36/58/46 
f 36/58/46 3/60/47 35/57/45 
s 1
f 34/61/48 13/62/10 37/63/49 
f 13/62/10 34/61/48 23/64/36 
f 38/65/50 36/66/50 34/61/48 
f 38/65/50 34/61/48 37/63/49 
f 6/67/6 36/66/50 38/65/50 
f 36/66/50 6/67/6 1/68/1 
s 2
f 39/69/51 13/70/25 15/71/52 
f 13/70/25 39/69/51 37/72/53 
f 37/72/53 39/69/51 40/73/54 
f 40/73/54 38/74/55 37/72/53 
f 8/75/47 38/74/55 40/73/54 
f 38/74/55 8/75/47 6/76/5 
# 54 faces

#
# object SM_Door_Frame_Beading
#

v  0.4014 1.9994 0.0155
v  -0.4007 1.9994 0.0155
v  0.3948 1.9929 0.0155
v  -0.3942 1.9924 0.0155
v  0.3948 1.9929 -0.0160
v  -0.3942 1.9924 -0.0160
v  -0.4007 1.9994 -0.0160
v  0.4014 1.9994 -0.0160
v  -0.4007 0.0000 0.0155
v  -0.3942 0.0000 0.0155
v  -0.3942 0.0000 -0.0160
v  -0.4007 0.0000 -0.0160
v  -0.3995 1.7120 0.0269
v  -0.3995 1.7870 0.0269
v  -0.3995 1.7870 0.0480
v  -0.3995 1.7120 0.0480
v  -0.4008 1.7870 0.0269
v  -0.4008 1.7870 0.0480
v  -0.4008 1.7120 0.0269
v  -0.4008 1.7120 0.0480
v  0.4014 0.0000 0.0155
v  0.3948 0.0000 0.0155
v  0.3948 0.0000 -0.0160
v  0.4014 0.0000 -0.0160
v  -0.3995 0.8659 0.0269
v  -0.3995 0.9409 0.0269
v  -0.3995 0.9409 0.0480
v  -0.3995 0.8659 0.0480
v  -0.4008 0.9409 0.0269
v  -0.4008 0.9409 0.0480
v  -0.4008 0.8659 0.0269
v  -0.4008 0.8659 0.0480
v  -0.3995 0.1799 0.0269
v  -0.3995 0.2549 0.0269
v  -0.3995 0.2549 0.0480
v  -0.3995 0.1799 0.0480
v  -0.4008 0.2549 0.0269
v  -0.4008 0.2549 0.0480
v  -0.4008 0.1799 0.0269
v  -0.4008 0.1799 0.0480
# 40 vertices

vn 0.0000 0.0000 1.0000
vn 0.0006 -1.0000 0.0000
vn 0.0000 0.0000 -1.0000
vn 1.0000 0.0000 0.0000
vn 0.0000 1.0000 0.0000
vn 0.0000 -1.0000 0.0000
vn -1.0000 0.0000 0.0000
# 7 vertex normals

vt 0.8729 0.1355 0.0000
vt 0.5105 0.1355 0.0000
vt 0.8699 0.1325 0.0000
vt 0.5135 0.1323 0.0000
vt 0.8732 0.9271 0.0000
vt 0.5168 0.9271 0.0000
vt 0.8732 0.9129 0.0000
vt 0.5168 0.9129 0.0000
vt 0.5135 0.1325 0.0000
vt 0.8699 0.1323 0.0000
vt 0.9054 0.0535 0.0000
vt 0.0022 0.0535 0.0000
vt 0.9022 0.0505 0.0000
vt 0.0022 0.0505 0.0000
vt 0.9026 0.0742 0.0000
vt 0.0025 0.0600 0.0000
vt 0.9026 0.0600 0.0000
vt 0.0025 0.0742 0.0000
vt 0.0021 0.0535 0.0000
vt 0.9023 0.0505 0.0000
vt 0.0021 0.0505 0.0000
vt 0.4796 0.0081 0.0000
vt 0.4796 0.0420 0.0000
vt 0.4700 0.0420 0.0000
vt 0.4700 0.0081 0.0000
vt 0.5024 0.0087 0.0000
vt 0.4928 0.0087 0.0000
vt 0.4928 0.0081 0.0000
vt 0.5024 0.0081 0.0000
vt 0.4840 0.0420 0.0000
vt 0.4840 0.0081 0.0000
vt 0.4846 0.0081 0.0000
vt 0.4846 0.0420 0.0000
vt 0.5163 0.0087 0.0000
vt 0.5068 0.0087 0.0000
vt 0.5068 0.0081 0.0000
vt 0.5163 0.0081 0.0000
vt 0.4890 0.0081 0.0000
vt 0.4890 0.0420 0.0000
vt 0.4884 0.0420 0.0000
vt 0.4884 0.0081 0.0000
vt 1.0022 0.0535 0.0000
vt 1.9054 0.0535 0.0000
vt 1.9022 0.0505 0.0000
vt 1.0022 0.0505 0.0000
vt 1.9026 0.0742 0.0000
vt 1.0025 0.0600 0.0000
vt 1.0025 0.0742 0.0000
vt 1.9026 0.0600 0.0000
vt 1.0021 0.0535 0.0000
vt 1.9023 0.0505 0.0000
vt 1.0021 0.0505 0.0000
# 52 texture coords

o SM_Door_Frame_Beading
g SM_Door_Frame_Beading
s 1
f 41/77/56 42/78/56 43/79/56 
f 43/79/56 42/78/56 44/80/56 
s 2
f 43/81/57 44/82/57 45/83/57 
f 45/83/57 44/82/57 46/84/57 
s 1
f 45/85/58 47/77/58 48/78/58 
f 47/77/58 45/85/58 46/86/58 
f 42/87/56 49/88/56 44/89/56 
f 50/90/56 44/89/56 49/88/56 
s 4
f 44/91/59 51/92/59 46/93/59 
f 51/92/59 44/91/59 50/94/59 
s 1
f 52/95/58 46/96/58 51/97/58 
f 46/96/58 52/95/58 47/87/58 
f 53/98/59 54/99/59 55/100/59 
f 53/98/59 55/100/59 56/101/59 
s 2
f 55/102/60 54/103/60 57/104/60 
f 55/102/60 57/104/60 58/105/60 
s 4
f 54/106/58 53/107/58 59/108/58 
f 54/106/58 59/108/58 57/109/58 
s 2
f 53/110/61 56/111/61 60/112/61 
f 53/110/61 60/112/61 59/113/61 
s 4
f 56/114/56 55/115/56 58/116/56 
f 56/114/56 58/116/56 60/117/56 
s 1
f 61/118/56 41/119/56 43/120/56 
f 61/118/56 43/120/56 62/121/56 
s 4
f 43/122/62 63/123/62 62/124/62 
f 63/123/62 43/122/62 45/125/62 
s 1
f 64/126/58 45/127/58 48/119/58 
f 45/127/58 64/126/58 63/128/58 
f 65/98/59 66/99/59 67/100/59 
f 65/98/59 67/100/59 68/101/59 
s 2
f 67/102/60 66/103/60 69/104/60 
f 67/102/60 69/104/60 70/105/60 
s 4
f 66/106/58 65/107/58 71/108/58 
f 66/106/58 71/108/58 69/109/58 
s 2
f 65/110/61 68/111/61 72/112/61 
f 65/110/61 72/112/61 71/113/61 
s 4
f 68/114/56 67/115/56 70/116/56 
f 68/114/56 70/116/56 72/117/56 
s 1
f 73/98/59 74/99/59 75/100/59 
f 73/98/59 75/100/59 76/101/59 
s 2
f 75/102/60 74/103/60 77/104/60 
f 75/102/60 77/104/60 78/105/60 
s 4
f 74/106/58 73/107/58 79/108/58 
f 74/106/58 79/108/58 77/109/58 
s 2
f 73/110/61 76/111/61 80/112/61 
f 73/110/61 80/112/61 79/113/61 
s 4
f 76/114/56 75/115/56 78/116/56 
f 76/114/56 78/116/56 80/117/56 
# 48 faces

