# 3ds Max Wavefront OBJ Exporter v0.97b - (c)2007 guruware
# File Created: 29.05.2020 00:17:32

#
# object Box001
#

v  -0.4997 0.0000 -0.0200
v  0.4989 0.0000 -0.0200
v  3.7146 0.0000 6.5517
v  3.7146 2.0000 6.5517
v  0.4989 2.0000 -0.0200
v  -0.4997 2.0000 -0.0200
# 6 vertices

vn 0.0000 -1.0000 -0.0000
vn 0.0000 1.0000 -0.0000
vn -0.8418 -0.0000 0.5398
vn -0.8418 0.0000 0.5398
vn 0.8982 -0.0000 -0.4395
vn 0.8982 0.0000 -0.4395
vn 0.0000 0.0000 -1.0000
# 7 vertex normals

vt 1.0000 0.0000 0.0000
vt 0.1206 0.5257 0.0000
vt 0.1206 0.0000 0.0000
vt 0.8794 0.0000 0.0000
vt 0.8794 0.5257 0.0000
vt 0.0000 0.5257 0.0000
vt 0.0000 0.0000 0.0000
vt 0.8794 1.8296 0.0000
vt 0.0000 1.8296 0.0000
vt 0.5257 0.0000 0.0000
vt 0.5257 1.8296 0.0000
# 11 texture coords

g Box001
s 2
f 1/1/1 2/2/1 3/3/1 
s 4
f 4/4/2 5/5/2 6/6/2 
s 8
f 1/7/3 3/4/4 4/8/3 
f 4/8/3 6/9/3 1/7/3 
s 16
f 3/7/5 2/10/5 5/11/5 
f 5/11/5 4/9/6 3/7/5 
s 32
f 2/7/7 1/4/7 6/8/7 
f 6/8/7 5/9/7 2/7/7 
# 8 faces

