# 3ds Max Wavefront OBJ Exporter v0.97b - (c)2007 guruware
# File Created: 09.04.2020 14:54:17

#
# object Object006
#

v  -0.5000 0.1641 0.0000
v  -0.5000 0.5974 0.4500
v  -0.4748 0.5974 0.4500
v  -0.4748 0.1641 0.0000
v  -0.4678 0.0000 0.4500
v  -0.4678 0.5904 0.4500
v  -0.4686 0.5943 0.4500
v  -0.4709 0.5966 0.4500
v  -0.5000 0.0000 0.4500
v  -0.4678 0.0000 0.0000
v  -0.4678 0.1571 0.0000
v  -0.5000 0.0000 0.0000
v  -0.4709 0.1633 0.0000
v  -0.4686 0.1610 0.0000
v  -0.4678 0.1191 0.0255
v  0.4678 0.1191 0.0255
v  0.4678 0.0000 0.0255
v  -0.4678 0.0000 0.0255
v  -0.4678 0.1191 0.0113
v  0.4678 0.1191 0.0113
v  0.4678 0.1486 0.1755
v  0.4678 0.1486 0.0113
v  -0.4678 0.1486 0.0113
v  -0.4678 0.1486 0.1755
v  -0.4678 0.1410 0.0037
v  0.4678 0.1410 0.0037
v  0.4678 0.1267 0.0037
v  -0.4678 0.1267 0.0037
v  -0.4678 0.1199 0.0071
v  0.4678 0.1199 0.0071
v  0.4678 0.1478 0.0071
v  -0.4678 0.1478 0.0071
v  -0.4678 0.1225 0.0045
v  0.4678 0.1225 0.0045
v  0.4678 0.1452 0.0045
v  -0.4678 0.1452 0.0045
v  -0.4678 0.2635 0.1755
v  0.4678 0.2635 0.1755
v  -0.4678 0.2635 0.1613
v  0.4678 0.2635 0.1613
v  0.4678 0.2931 0.3255
v  0.4678 0.2931 0.1613
v  -0.4678 0.2931 0.1613
v  -0.4678 0.2931 0.3255
v  -0.4678 0.2854 0.1537
v  0.4678 0.2854 0.1537
v  0.4678 0.2712 0.1537
v  -0.4678 0.2712 0.1537
v  -0.4678 0.2644 0.1571
v  0.4678 0.2644 0.1571
v  0.4678 0.2922 0.1571
v  -0.4678 0.2922 0.1571
v  -0.4678 0.2669 0.1545
v  0.4678 0.2669 0.1545
v  0.4678 0.2897 0.1545
v  -0.4678 0.2897 0.1545
v  -0.4678 0.4080 0.3255
v  0.4678 0.4080 0.3255
v  -0.4678 0.4080 0.3113
v  0.4678 0.4080 0.3113
v  0.4678 0.4375 0.4755
v  0.4678 0.4375 0.3113
v  -0.4678 0.4375 0.3113
v  -0.4678 0.4375 0.4755
v  -0.4678 0.4298 0.3037
v  0.4678 0.4298 0.3037
v  0.4678 0.4156 0.3037
v  -0.4678 0.4156 0.3037
v  -0.4678 0.4088 0.3071
v  0.4678 0.4088 0.3071
v  0.4678 0.4367 0.3071
v  -0.4678 0.4367 0.3071
v  -0.4678 0.4114 0.3045
v  0.4678 0.4114 0.3045
v  0.4678 0.4341 0.3045
v  -0.4678 0.4341 0.3045
v  0.5000 0.1641 0.0000
v  0.4748 0.1641 0.0000
v  0.4748 0.5974 0.4500
v  0.5000 0.5974 0.4500
v  0.5000 0.0000 0.4500
v  0.4686 0.5943 0.4500
v  0.4678 0.5904 0.4500
v  0.4678 0.0000 0.4500
v  0.4709 0.5966 0.4500
v  0.4678 0.1571 0.0000
v  0.4678 0.0000 0.0000
v  0.4709 0.1633 0.0000
v  0.4686 0.1610 0.0000
v  0.5000 0.0000 0.0000
v  -0.4497 4.9896 2.6500
v  -0.4497 2.3896 0.0500
v  -0.4497 2.4000 0.0500
v  -0.4497 5.0000 2.6500
v  -0.4702 4.9743 2.6704
v  -0.4702 2.3743 0.0296
v  -0.4763 4.9474 2.6763
v  -0.4763 2.3474 0.0237
v  -0.4905 4.9277 2.6905
v  -0.4905 2.3277 0.0095
v  -0.4905 4.9183 2.6906
v  -0.4905 2.3183 0.0094
v  -0.5000 4.9183 2.7000
v  -0.5000 2.3183 0.0000
v  -0.5000 2.4000 0.0000
v  -0.5000 5.0000 2.7000
v  0.4497 2.4000 0.0500
v  0.4497 2.3896 0.0500
v  0.4702 2.3743 0.0296
v  0.4763 2.3474 0.0237
v  0.4905 2.3277 0.0095
v  0.4905 2.3183 0.0094
v  0.5000 2.3183 0.0000
v  0.5000 2.4000 0.0000
v  0.4497 5.0000 2.6500
v  0.4497 4.9896 2.6500
v  0.4702 4.9743 2.6704
v  0.4763 4.9474 2.6763
v  0.4905 4.9277 2.6905
v  0.4905 4.9183 2.6906
v  0.5000 4.9183 2.7000
v  0.5000 5.0000 2.7000
# 122 vertices

vn 0.0000 0.7203 -0.6936
vn 0.0699 0.7186 -0.6919
vn 0.0764 0.7182 -0.6916
vn 0.0000 0.0000 1.0000
vn 1.0000 0.0000 0.0000
vn 0.9974 0.0518 -0.0499
vn 0.9788 0.1475 -0.1421
vn 0.0000 0.0000 -1.0000
vn 0.4175 0.6546 -0.6303
vn 0.3223 0.6819 -0.6566
vn 0.5845 0.5845 -0.5628
vn 0.9618 0.1973 -0.1900
vn 0.0000 -1.0000 0.0000
vn 0.0000 -0.9956 -0.0940
vn 0.0000 1.0000 0.0000
vn 0.0000 0.9956 -0.0940
vn 0.0000 0.0940 -0.9956
vn 0.0000 -0.0940 -0.9956
vn 0.0000 -0.9823 -0.1871
vn 0.0000 0.9823 -0.1871
vn 0.0000 -0.7071 -0.7071
vn 0.0000 -0.1871 -0.9823
vn 0.0000 0.7071 -0.7071
vn 0.0000 0.1871 -0.9823
vn 0.0000 -0.9944 -0.1054
vn 0.0000 0.9944 -0.1054
vn 0.0000 0.0918 -0.9958
vn 0.0000 -0.0918 -0.9958
vn 0.0000 -0.9778 -0.2095
vn 0.0000 0.9778 -0.2095
vn 0.0000 -0.7208 -0.6931
vn 0.0000 -0.1829 -0.9831
vn 0.0000 0.7208 -0.6931
vn 0.0000 0.1829 -0.9831
vn -0.0764 0.7182 -0.6916
vn -0.0699 0.7186 -0.6919
vn -1.0000 0.0000 0.0000
vn -0.9788 0.1475 -0.1421
vn -0.9974 0.0518 -0.0499
vn -0.4175 0.6546 -0.6303
vn -0.3223 0.6819 -0.6566
vn -0.5845 0.5845 -0.5628
vn -0.9618 0.1973 -0.1900
vn -0.1641 -0.7029 0.6921
vn 0.7763 -0.4458 0.4458
vn 0.9270 -0.2678 0.2625
vn 0.9674 -0.1804 0.1776
vn 0.2871 -0.6876 0.6669
vn 0.8607 -0.3636 0.3563
vn 1.0000 -0.0000 0.0000
vn -0.5659 -0.5939 0.5719
vn 0.5673 -0.5912 0.5733
vn 0.5750 0.5785 -0.5785
vn -0.5676 0.5930 -0.5711
vn 0.0000 -0.8000 0.6000
vn 0.0000 -0.4334 0.9012
vn 0.0000 -0.4485 0.8938
vn 0.0000 -0.2508 0.9680
vn 0.0000 -0.0106 0.9999
vn 0.0000 -1.0000 -0.0000
vn -0.0000 1.0000 0.0000
vn -0.0000 1.0000 -0.0000
vn 0.0000 -0.8000 -0.6000
vn 0.0000 -0.4334 -0.9012
vn 0.0000 -0.4485 -0.8938
vn 0.0000 -0.2508 -0.9680
vn 0.0000 -0.0107 -0.9999
vn -1.0000 0.0000 -0.0000
vn -0.7763 -0.4458 0.4458
vn 0.1641 -0.7029 0.6921
vn -0.9674 -0.1804 0.1776
vn -0.9270 -0.2678 0.2625
vn -0.8607 -0.3636 0.3563
vn -0.2871 -0.6876 0.6669
vn -1.0000 -0.0000 -0.0000
vn -0.5673 -0.5912 0.5733
vn 0.5659 -0.5939 0.5719
vn 0.5676 0.5930 -0.5711
vn -0.5750 0.5785 -0.5785
# 79 vertex normals

vt 0.6246 0.4214 0.0000
vt 0.6246 0.1327 0.0000
vt 0.6413 0.1327 0.0000
vt 0.6413 0.4214 0.0000
vt 0.6680 0.0010 0.0000
vt 0.6680 0.3943 0.0000
vt 0.6674 0.3969 0.0000
vt 0.6659 0.3985 0.0000
vt 0.6633 0.3990 0.0000
vt 0.6465 0.0010 0.0000
vt 0.6465 0.3990 0.0000
vt 0.6553 0.4050 0.0000
vt 0.9551 0.4050 0.0000
vt 0.9551 0.5097 0.0000
vt 0.6553 0.7983 0.0000
vt 0.6460 0.5307 0.0000
vt 0.6246 0.5307 0.0000
vt 0.6439 0.4219 0.0000
vt 0.6455 0.4235 0.0000
vt 0.6460 0.4261 0.0000
vt 0.6439 0.1333 0.0000
vt 0.9551 0.5123 0.0000
vt 0.9551 0.5138 0.0000
vt 0.6553 0.8025 0.0000
vt 0.6553 0.8009 0.0000
vt 0.5809 0.1240 0.0000
vt 0.5809 0.7473 0.0000
vt 0.5016 0.7473 0.0000
vt 0.5016 0.1240 0.0000
vt 0.1371 0.7473 0.0000
vt 0.1371 0.1240 0.0000
vt 0.1466 0.1240 0.0000
vt 0.1466 0.7473 0.0000
vt 0.0186 0.1240 0.0000
vt 0.1280 0.1240 0.0000
vt 0.1280 0.7473 0.0000
vt 0.0186 0.7473 0.0000
vt 0.2461 0.1240 0.0000
vt 0.2461 0.7473 0.0000
vt 0.2365 0.7473 0.0000
vt 0.2365 0.1240 0.0000
vt 0.1494 0.1240 0.0000
vt 0.1494 0.7473 0.0000
vt 0.1308 0.1240 0.0000
vt 0.1308 0.7473 0.0000
vt 0.1511 0.1240 0.0000
vt 0.1511 0.7473 0.0000
vt 0.2337 0.1240 0.0000
vt 0.2337 0.7473 0.0000
vt 0.1325 0.1240 0.0000
vt 0.1325 0.7473 0.0000
vt 0.2489 0.7473 0.0000
vt 0.2489 0.1240 0.0000
vt 0.4991 0.1240 0.0000
vt 0.4991 0.7473 0.0000
vt 0.4226 0.7473 0.0000
vt 0.4226 0.1240 0.0000
vt 0.4050 0.7473 0.0000
vt 0.4050 0.1240 0.0000
vt 0.4145 0.1240 0.0000
vt 0.4145 0.7473 0.0000
vt 0.2864 0.1240 0.0000
vt 0.3958 0.1240 0.0000
vt 0.3958 0.7473 0.0000
vt 0.2864 0.7473 0.0000
vt 0.0133 0.1196 0.0000
vt 0.0133 0.7429 0.0000
vt 0.0039 0.7429 0.0000
vt 0.0039 0.1196 0.0000
vt 0.4173 0.1240 0.0000
vt 0.4173 0.7473 0.0000
vt 0.3986 0.1240 0.0000
vt 0.3986 0.7473 0.0000
vt 0.4190 0.1240 0.0000
vt 0.4190 0.7473 0.0000
vt 0.0010 0.1196 0.0000
vt 0.0010 0.7429 0.0000
vt 0.4004 0.1240 0.0000
vt 0.4004 0.7473 0.0000
vt 0.0162 0.7429 0.0000
vt 0.0162 0.1196 0.0000
vt 0.2312 0.1240 0.0000
vt 0.2312 0.7473 0.0000
vt 0.1547 0.7473 0.0000
vt 0.1547 0.1240 0.0000
vt 0.2829 0.1240 0.0000
vt 0.2829 0.7473 0.0000
vt 0.2734 0.7473 0.0000
vt 0.2734 0.1240 0.0000
vt 0.0054 0.1149 0.0000
vt 0.0054 0.0055 0.0000
vt 0.6287 0.0055 0.0000
vt 0.6287 0.1149 0.0000
vt 0.2636 0.1240 0.0000
vt 0.2636 0.7473 0.0000
vt 0.2541 0.7473 0.0000
vt 0.2541 0.1240 0.0000
vt 0.2706 0.7473 0.0000
vt 0.2706 0.1240 0.0000
vt 0.0054 0.0027 0.0000
vt 0.6287 0.0027 0.0000
vt 0.2689 0.7473 0.0000
vt 0.2689 0.1240 0.0000
vt 0.2513 0.1240 0.0000
vt 0.2513 0.7473 0.0000
vt 0.0054 0.0010 0.0000
vt 0.6287 0.0010 0.0000
vt 0.2664 0.7473 0.0000
vt 0.2664 0.1240 0.0000
vt 0.3008 0.9012 0.0000
vt 0.3008 0.9180 0.0000
vt 0.0010 0.9180 0.0000
vt 0.0010 0.9012 0.0000
vt 0.6729 0.3990 0.0000
vt 0.6729 0.0010 0.0000
vt 0.6896 0.0010 0.0000
vt 0.6938 0.0031 0.0000
vt 0.6943 0.0057 0.0000
vt 0.6943 0.3990 0.0000
vt 0.6922 0.0015 0.0000
vt 0.6992 0.3985 0.0000
vt 0.6992 0.0051 0.0000
vt 0.9990 0.2938 0.0000
vt 0.9990 0.3985 0.0000
vt 0.0015 0.9689 0.0000
vt 0.0010 0.9663 0.0000
vt 0.0010 0.9495 0.0000
vt 0.0031 0.9704 0.0000
vt 0.0057 0.9710 0.0000
vt 0.1103 0.9710 0.0000
vt 0.1103 0.9495 0.0000
vt 0.3008 0.9206 0.0000
vt 0.0010 0.9206 0.0000
vt 0.9990 0.2912 0.0000
vt 0.6992 0.0025 0.0000
vt 0.6992 0.0010 0.0000
vt 0.9990 0.2897 0.0000
vt 0.0020 0.9613 0.0000
vt 0.0020 0.9674 0.0000
vt 0.0020 0.9416 0.0000
vt 0.0020 0.9527 0.0000
vt 0.0020 0.9297 0.0000
vt 0.0020 0.9192 0.0000
vt 0.0020 0.9117 0.0000
vt 0.0020 0.8960 0.0000
vt 0.0020 0.9018 0.0000
vt 0.0020 0.9755 0.0000
vt 0.0020 0.9980 0.0000
vt 0.9980 0.9613 0.0000
vt 0.9980 0.9674 0.0000
vt 0.9980 0.9416 0.0000
vt 0.9980 0.9527 0.0000
vt 0.9980 0.9297 0.0000
vt 0.9980 0.9192 0.0000
vt 0.9980 0.9117 0.0000
vt 0.9980 0.8960 0.0000
vt 0.9980 0.9018 0.0000
vt 0.9980 0.9980 0.0000
vt 0.9980 0.9755 0.0000
# 159 texture coords

o Object006
g Object006
s 1
f 1/1/1 2/2/1 3/3/2 
f 3/3/2 4/4/3 1/1/1 
s 2
f 5/5/4 6/6/4 7/7/4 
f 5/5/4 7/7/4 8/8/4 
f 5/5/4 8/8/4 3/9/4 
f 9/10/4 5/5/4 3/9/4 
f 9/10/4 3/9/4 2/11/4 
s 4
f 5/12/5 10/13/5 11/14/6 
f 11/14/6 6/15/7 5/12/5 
s 2
f 10/16/8 12/17/8 1/1/8 
f 1/1/8 4/4/8 13/18/8 
f 1/1/8 13/18/8 14/19/8 
f 1/1/8 14/19/8 11/20/8 
f 10/16/8 1/1/8 11/20/8 
s 1
f 13/18/9 4/4/3 3/3/2 
f 3/3/2 8/21/10 13/18/9 
f 14/22/11 13/23/9 8/24/10 
f 8/24/10 7/25/11 14/22/11 
s 4
f 11/14/6 14/22/12 7/25/12 
f 7/25/12 6/15/7 11/14/6 
s 1
f 15/26/8 16/27/8 17/28/8 
f 17/28/8 18/29/8 15/26/8 
s 2
f 16/30/13 15/31/13 19/32/14 
f 19/32/14 20/33/14 16/30/13 
s 1
f 21/34/15 22/35/16 23/36/16 
f 23/36/16 24/37/15 21/34/15 
f 25/38/17 26/39/17 27/40/18 
f 27/40/18 28/41/18 25/38/17 
s 2
f 19/32/14 29/42/19 30/43/19 
f 30/43/19 20/33/14 19/32/14 
s 1
f 22/35/16 31/44/20 32/45/20 
f 32/45/20 23/36/16 22/35/16 
s 4
f 29/42/21 33/46/21 34/47/21 
f 34/47/21 30/43/21 29/42/21 
s 1
f 33/48/22 28/41/18 27/40/18 
f 27/40/18 34/49/22 33/48/22 
s 2
f 31/44/23 35/50/23 36/51/23 
f 36/51/23 32/45/23 31/44/23 
s 1
f 35/52/24 26/39/17 25/38/17 
f 25/38/17 36/53/24 35/52/24 
s 2
f 37/54/8 38/55/8 21/56/8 
f 21/56/8 24/57/8 37/54/8 
s 1
f 38/58/13 37/59/13 39/60/25 
f 39/60/25 40/61/25 38/58/13 
f 41/62/15 42/63/26 43/64/26 
f 43/64/26 44/65/15 41/62/15 
f 45/66/27 46/67/27 47/68/28 
f 47/68/28 48/69/28 45/66/27 
f 39/60/25 49/70/29 50/71/29 
f 50/71/29 40/61/25 39/60/25 
f 42/63/26 51/72/30 52/73/30 
f 52/73/30 43/64/26 42/63/26 
s 2
f 49/70/31 53/74/31 54/75/31 
f 54/75/31 50/71/31 49/70/31 
s 1
f 53/76/32 48/69/28 47/68/28 
f 47/68/28 54/77/32 53/76/32 
s 2
f 51/72/33 55/78/33 56/79/33 
f 56/79/33 52/73/33 51/72/33 
s 1
f 55/80/34 46/67/27 45/66/27 
f 45/66/27 56/81/34 55/80/34 
s 2
f 57/82/8 58/83/8 41/84/8 
f 41/84/8 44/85/8 57/82/8 
s 1
f 58/86/13 57/87/13 59/88/14 
f 59/88/14 60/89/14 58/86/13 
f 61/90/15 62/91/16 63/92/16 
f 63/92/16 64/93/15 61/90/15 
f 65/94/27 66/95/27 67/96/18 
f 67/96/18 68/97/18 65/94/27 
f 59/88/14 69/98/19 70/99/19 
f 70/99/19 60/89/14 59/88/14 
f 62/91/16 71/100/20 72/101/20 
f 72/101/20 63/92/16 62/91/16 
s 2
f 69/98/21 73/102/21 74/103/21 
f 74/103/21 70/99/21 69/98/21 
s 1
f 73/104/22 68/97/18 67/96/18 
f 67/96/18 74/105/22 73/104/22 
s 2
f 71/100/23 75/106/23 76/107/23 
f 76/107/23 72/101/23 71/100/23 
s 1
f 75/108/34 66/95/27 65/94/27 
f 65/94/27 76/109/34 75/108/34 
f 77/110/1 78/111/35 79/112/36 
f 79/112/36 80/113/1 77/110/1 
s 2
f 81/114/4 80/115/4 79/116/4 
f 82/117/4 83/118/4 84/119/4 
f 85/120/4 82/117/4 84/119/4 
f 79/116/4 85/120/4 84/119/4 
f 81/114/4 79/116/4 84/119/4 
s 4
f 84/121/37 83/122/38 86/123/39 
f 86/123/39 87/124/37 84/121/37 
s 2
f 88/125/8 78/126/8 77/127/8 
f 89/128/8 88/125/8 77/127/8 
f 86/129/8 89/128/8 77/127/8 
f 87/130/8 86/129/8 77/127/8 
f 87/130/8 77/127/8 90/131/8 
s 1
f 88/132/40 85/133/41 79/112/36 
f 79/112/36 78/111/35 88/132/40 
f 89/134/42 82/135/42 85/136/41 
f 85/136/41 88/137/40 89/134/42 
s 4
f 86/123/39 83/122/38 82/135/43 
f 82/135/43 89/134/43 86/123/39 
s off
f 91/138/5 92/138/5 93/139/5 
f 93/139/5 94/139/5 91/138/5 
f 95/140/44 96/140/44 92/141/44 
f 92/141/45 91/141/45 95/140/45 
f 97/142/46 98/142/46 96/140/46 
f 96/140/47 95/140/47 97/142/47 
f 99/143/48 100/143/48 98/142/48 
f 98/142/49 97/142/49 99/143/49 
f 101/144/50 102/144/50 100/143/50 
f 100/143/5 99/143/5 101/144/5 
f 103/145/51 104/145/51 102/146/51 
f 102/146/52 101/146/52 103/145/52 
f 94/147/53 93/147/53 105/148/53 
f 105/148/54 106/148/54 94/147/54 
s 1
f 107/139/4 92/149/4 108/138/4 
f 92/149/4 107/139/4 93/150/4 
s 2
f 108/141/55 96/151/56 109/140/56 
f 96/151/56 108/141/55 92/152/55 
f 109/140/56 98/153/57 110/142/57 
f 98/153/57 109/140/56 96/151/56 
f 110/142/57 100/154/58 111/143/58 
f 100/154/58 110/142/57 98/153/57 
f 111/143/58 102/155/59 112/144/59 
f 102/155/59 111/143/58 100/154/58 
s 1
f 112/146/13 104/156/60 113/145/13 
f 104/156/60 112/146/13 102/157/60 
s 2
f 105/158/61 107/147/62 114/148/62 
f 105/158/61 93/159/61 107/147/62 
s 1
f 115/139/8 116/138/8 91/149/8 
f 91/149/8 94/150/8 115/139/8 
s 2
f 116/141/63 117/140/64 95/151/64 
f 95/151/64 91/152/63 116/141/63 
f 117/140/64 118/142/65 97/153/65 
f 97/153/65 95/151/64 117/140/64 
f 118/142/65 119/143/66 99/154/66 
f 99/154/66 97/153/65 118/142/65 
f 119/143/66 120/144/67 101/155/67 
f 101/155/67 99/154/66 119/143/66 
s 1
f 120/146/13 121/145/13 103/156/13 
f 103/156/13 101/157/13 120/146/13 
s 2
f 106/158/15 122/148/15 115/147/15 
f 106/158/15 115/147/15 94/159/15 
s off
f 116/138/68 115/139/68 107/139/68 
f 107/139/68 108/138/68 116/138/68 
f 117/140/69 116/141/69 108/141/69 
f 108/141/70 109/140/70 117/140/70 
f 118/142/71 117/140/71 109/140/71 
f 109/140/72 110/142/72 118/142/72 
f 119/143/73 118/142/73 110/142/73 
f 110/142/74 111/143/74 119/143/74 
f 120/144/75 119/143/75 111/143/75 
f 111/143/68 112/144/68 120/144/68 
f 121/145/76 120/146/76 112/146/76 
f 112/146/77 113/145/77 121/145/77 
f 115/147/78 122/148/78 114/148/78 
f 114/148/79 107/147/79 115/147/79 
# 156 faces

