# 3ds Max Wavefront OBJ Exporter v0.97b - (c)2007 guruware
# File Created: 23.05.2020 05:57:09

#
# object Picture_05
#

v  -0.3327 -0.0020 -0.1954
v  0.3327 -0.0020 -0.1954
v  0.3327 -0.0020 0.1954
v  -0.3327 -0.0020 0.1954
v  -0.4025 0.0070 -0.2594
v  0.4025 0.0070 -0.2594
v  0.4025 -0.0111 -0.2594
v  -0.4025 -0.0111 -0.2594
v  0.4025 0.0070 0.2594
v  0.4025 -0.0111 0.2594
v  -0.4025 0.0070 0.2594
v  -0.4025 -0.0111 0.2594
v  -0.3469 -0.0062 -0.2038
v  -0.3503 -0.0054 -0.2072
v  0.3503 -0.0054 -0.2072
v  0.3469 -0.0062 -0.2038
v  -0.3469 -0.0062 0.2038
v  -0.3503 -0.0054 0.2072
v  0.3469 -0.0062 0.2038
v  0.3503 -0.0054 0.2072
v  -0.3778 0.0127 -0.2347
v  -0.3778 0.0127 0.2347
v  0.3778 0.0127 0.2347
v  0.3778 0.0127 -0.2347
v  0.3716 -0.0111 -0.2285
v  -0.3716 -0.0111 -0.2285
v  -0.3726 -0.0119 -0.2295
v  0.3726 -0.0119 -0.2295
v  -0.3716 -0.0111 0.2285
v  -0.3726 -0.0119 0.2295
v  0.3716 -0.0111 0.2285
v  0.3726 -0.0119 0.2295
v  -0.3778 -0.0111 -0.2347
v  -0.3824 -0.0111 -0.2392
v  0.3824 -0.0111 -0.2392
v  0.3778 -0.0111 -0.2347
v  -0.3778 -0.0111 0.2347
v  -0.3824 -0.0111 0.2392
v  0.3778 -0.0111 0.2347
v  0.3824 -0.0111 0.2392
v  0.3672 -0.0082 -0.2241
v  -0.3672 -0.0082 -0.2241
v  -0.3672 -0.0082 0.2241
v  0.3672 -0.0082 0.2241
v  -0.3562 -0.0047 -0.2130
v  0.3562 -0.0047 -0.2130
v  -0.3562 -0.0047 0.2130
v  0.3562 -0.0047 0.2130
v  -0.3618 -0.0056 -0.2187
v  0.3618 -0.0056 -0.2187
v  -0.3618 -0.0056 0.2187
v  0.3618 -0.0056 0.2187
v  0.3768 -0.0119 -0.2337
v  -0.3768 -0.0119 -0.2337
v  -0.3768 -0.0119 0.2337
v  0.3768 -0.0119 0.2337
v  -0.3737 -0.0125 -0.2305
v  0.3737 -0.0125 -0.2305
v  -0.3737 -0.0125 0.2305
v  0.3737 -0.0125 0.2305
v  -0.3747 -0.0127 -0.2316
v  0.3747 -0.0127 -0.2316
v  -0.3758 -0.0125 -0.2326
v  0.3758 -0.0125 -0.2326
v  -0.3747 -0.0127 0.2316
v  -0.3758 -0.0125 0.2326
v  0.3747 -0.0127 0.2316
v  0.3758 -0.0125 0.2326
v  -0.3833 -0.0104 -0.2402
v  0.3833 -0.0104 -0.2402
v  -0.3833 -0.0104 0.2402
v  0.3833 -0.0104 0.2402
v  0.3906 -0.0111 -0.2475
v  -0.3906 -0.0111 -0.2475
v  -0.3906 -0.0111 0.2475
v  0.3906 -0.0111 0.2475
v  0.3897 -0.0104 -0.2466
v  -0.3897 -0.0104 -0.2466
v  -0.3897 -0.0104 0.2466
v  0.3897 -0.0104 0.2466
v  -0.3849 -0.0096 -0.2418
v  0.3849 -0.0096 -0.2418
v  -0.3849 -0.0096 0.2418
v  0.3849 -0.0096 0.2418
v  -0.3865 -0.0093 -0.2434
v  0.3865 -0.0093 -0.2434
v  -0.3881 -0.0096 -0.2450
v  0.3881 -0.0096 -0.2450
v  -0.3865 -0.0093 0.2434
v  -0.3881 -0.0096 0.2450
v  0.3865 -0.0093 0.2434
v  0.3881 -0.0096 0.2450
# 92 vertices

vn 0.0000 -1.0000 -0.0000
vn 0.0000 0.0000 -1.0000
vn 1.0000 0.0000 0.0000
vn 0.0000 -0.0000 1.0000
vn -1.0000 0.0000 0.0000
vn -0.0467 -0.9975 -0.0530
vn -0.0774 -0.9940 -0.0774
vn 0.0774 -0.9940 -0.0774
vn 0.0467 -0.9975 -0.0530
vn -0.0467 -0.9975 0.0530
vn -0.0774 -0.9940 0.0774
vn 0.0467 -0.9975 0.0530
vn 0.0774 -0.9940 0.0774
vn 0.0000 1.0000 0.0000
vn -0.3336 -0.8817 0.3336
vn 0.3336 -0.8817 0.3336
vn 0.2973 -0.9073 0.2973
vn -0.2973 -0.9073 0.2973
vn 0.3336 -0.8817 -0.3336
vn 0.2973 -0.9073 -0.2973
vn -0.3336 -0.8817 -0.3336
vn -0.2973 -0.9073 -0.2973
vn -0.2251 0.9743 0.0000
vn 0.0000 0.9743 -0.2251
vn 0.2251 0.9743 0.0000
vn 0.0000 0.9743 0.2251
vn -0.2333 -0.9440 -0.2333
vn 0.2333 -0.9440 -0.2333
vn -0.2333 -0.9440 0.2333
vn 0.2333 -0.9440 0.2333
vn -0.1325 -0.9570 0.2579
vn 0.1325 -0.9570 0.2579
vn -0.1325 -0.9570 -0.2579
vn 0.1325 -0.9570 -0.2579
vn -0.2763 -0.9205 0.2763
vn 0.2763 -0.9205 0.2763
vn 0.2763 -0.9205 -0.2763
vn -0.2763 -0.9205 -0.2763
vn 0.0472 -0.9978 0.0472
vn -0.0472 -0.9978 0.0472
vn 0.0472 -0.9978 -0.0472
vn -0.0472 -0.9978 -0.0472
vn 0.1904 -0.9631 0.1904
vn -0.1904 -0.9631 0.1904
vn 0.1904 -0.9631 -0.1904
vn -0.1904 -0.9631 -0.1904
vn -0.3490 -0.8697 -0.3491
vn 0.3490 -0.8697 -0.3491
vn 0.3289 -0.8853 -0.3288
vn -0.3289 -0.8853 -0.3288
vn -0.3490 -0.8697 0.3491
vn -0.3289 -0.8853 0.3288
vn 0.3490 -0.8697 0.3491
vn 0.3289 -0.8853 0.3288
vn 0.1459 -0.9785 0.1459
vn -0.1459 -0.9785 0.1459
vn 0.1459 -0.9785 -0.1459
vn -0.1459 -0.9785 -0.1459
vn -0.0494 -0.9976 -0.0494
vn 0.0494 -0.9976 -0.0494
vn -0.2304 -0.9454 -0.2304
vn 0.2304 -0.9454 -0.2304
vn -0.0494 -0.9976 0.0494
vn -0.2304 -0.9454 0.2304
vn 0.0494 -0.9976 0.0494
vn 0.2304 -0.9454 0.2304
vn -0.2663 -0.9264 -0.2663
vn 0.2663 -0.9264 -0.2663
vn -0.2663 -0.9264 0.2663
vn 0.2663 -0.9264 0.2663
vn -0.0823 -0.9932 0.0823
vn 0.0823 -0.9932 0.0823
vn 0.0823 -0.9932 -0.0823
vn -0.0823 -0.9932 -0.0823
vn -0.2968 -0.9077 0.2968
vn 0.2968 -0.9077 0.2968
vn 0.2968 -0.9077 -0.2968
vn -0.2968 -0.9077 -0.2968
vn -0.1290 -0.9832 -0.1290
vn 0.1290 -0.9832 -0.1290
vn -0.1290 -0.9832 0.1290
vn 0.1290 -0.9832 0.1290
vn 0.0435 -0.9981 0.0435
vn -0.0435 -0.9981 0.0435
vn 0.2060 -0.9566 0.2060
vn -0.2060 -0.9566 0.2060
vn 0.0435 -0.9981 -0.0435
vn 0.2060 -0.9566 -0.2060
vn -0.0435 -0.9981 -0.0435
vn -0.2060 -0.9566 -0.2060
# 90 vertex normals

vt 0.0044 0.7496 0.0000
vt 0.4185 0.7496 0.0000
vt 0.4185 0.9927 0.0000
vt 0.0044 0.9927 0.0000
vt 0.7542 0.2490 0.0000
vt 0.7542 0.7502 0.0000
vt 0.7429 0.7502 0.0000
vt 0.7429 0.2490 0.0000
vt 0.4043 0.1018 0.0000
vt 0.4043 0.4247 0.0000
vt 0.3930 0.4247 0.0000
vt 0.3930 0.1018 0.0000
vt 0.9236 0.0460 0.0000
vt 0.9236 0.5471 0.0000
vt 0.9124 0.5471 0.0000
vt 0.9124 0.0460 0.0000
vt 0.0616 0.0052 0.0000
vt 0.0616 0.3281 0.0000
vt 0.0504 0.3281 0.0000
vt 0.0504 0.0052 0.0000
vt 0.7060 0.2840 0.0000
vt 0.7082 0.2816 0.0000
vt 0.7082 0.7177 0.0000
vt 0.7060 0.7159 0.0000
vt 0.0135 0.0397 0.0000
vt 0.0157 0.0377 0.0000
vt 0.0157 0.2956 0.0000
vt 0.0135 0.2935 0.0000
vt 0.8754 0.0806 0.0000
vt 0.8775 0.0785 0.0000
vt 0.8775 0.5146 0.0000
vt 0.8754 0.5125 0.0000
vt 0.3560 0.1363 0.0000
vt 0.3582 0.1343 0.0000
vt 0.3582 0.3922 0.0000
vt 0.3560 0.3901 0.0000
vt 0.6075 0.0048 0.0000
vt 0.6075 0.1163 0.0000
vt 0.4280 0.1163 0.0000
vt 0.4280 0.0048 0.0000
vt 0.7225 0.7310 0.0000
vt 0.7225 0.2683 0.0000
vt 0.7233 0.2677 0.0000
vt 0.7233 0.7316 0.0000
vt 0.0300 0.3089 0.0000
vt 0.0300 0.0244 0.0000
vt 0.0308 0.0238 0.0000
vt 0.0308 0.3095 0.0000
vt 0.8918 0.5279 0.0000
vt 0.8918 0.0652 0.0000
vt 0.8926 0.0646 0.0000
vt 0.8926 0.5285 0.0000
vt 0.3725 0.4055 0.0000
vt 0.3725 0.1210 0.0000
vt 0.3733 0.1204 0.0000
vt 0.3733 0.4061 0.0000
vt 0.0774 0.0206 0.0000
vt 0.0774 0.3127 0.0000
vt 0.7700 0.2644 0.0000
vt 0.7700 0.7348 0.0000
vt 0.4200 0.1171 0.0000
vt 0.4200 0.4093 0.0000
vt 0.9394 0.0614 0.0000
vt 0.9394 0.5317 0.0000
vt 0.7270 0.2644 0.0000
vt 0.7298 0.2616 0.0000
vt 0.7298 0.7377 0.0000
vt 0.7270 0.7348 0.0000
vt 0.0345 0.0206 0.0000
vt 0.0373 0.0177 0.0000
vt 0.0373 0.3156 0.0000
vt 0.0345 0.3127 0.0000
vt 0.8963 0.0614 0.0000
vt 0.8992 0.0585 0.0000
vt 0.8992 0.5346 0.0000
vt 0.8963 0.5317 0.0000
vt 0.3770 0.1171 0.0000
vt 0.3799 0.1143 0.0000
vt 0.3799 0.4122 0.0000
vt 0.3770 0.4093 0.0000
vt 0.7006 0.7069 0.0000
vt 0.7006 0.2930 0.0000
vt 0.3470 0.3847 0.0000
vt 0.3470 0.1418 0.0000
vt 0.8699 0.5035 0.0000
vt 0.8699 0.0896 0.0000
vt 0.0045 0.2881 0.0000
vt 0.0045 0.0452 0.0000
vt 0.7192 0.7282 0.0000
vt 0.7192 0.2710 0.0000
vt 0.0267 0.3061 0.0000
vt 0.0267 0.0271 0.0000
vt 0.8885 0.5251 0.0000
vt 0.8885 0.0679 0.0000
vt 0.3692 0.4027 0.0000
vt 0.3692 0.1237 0.0000
vt 0.7119 0.2779 0.0000
vt 0.7119 0.7213 0.0000
vt 0.0194 0.0340 0.0000
vt 0.0194 0.2992 0.0000
vt 0.8812 0.0748 0.0000
vt 0.8812 0.5183 0.0000
vt 0.3619 0.1306 0.0000
vt 0.3619 0.3958 0.0000
vt 0.7155 0.2744 0.0000
vt 0.7155 0.7248 0.0000
vt 0.0230 0.0305 0.0000
vt 0.0230 0.3028 0.0000
vt 0.8848 0.0713 0.0000
vt 0.8848 0.5218 0.0000
vt 0.3654 0.1271 0.0000
vt 0.3654 0.3993 0.0000
vt 0.7262 0.7342 0.0000
vt 0.7262 0.2651 0.0000
vt 0.0336 0.3121 0.0000
vt 0.0336 0.0212 0.0000
vt 0.8955 0.5311 0.0000
vt 0.8955 0.0620 0.0000
vt 0.3762 0.4087 0.0000
vt 0.3762 0.1178 0.0000
vt 0.7241 0.2670 0.0000
vt 0.7241 0.7322 0.0000
vt 0.0315 0.0231 0.0000
vt 0.0315 0.3101 0.0000
vt 0.8934 0.0639 0.0000
vt 0.8934 0.5292 0.0000
vt 0.3740 0.1197 0.0000
vt 0.3740 0.4067 0.0000
vt 0.7247 0.2664 0.0000
vt 0.7247 0.7329 0.0000
vt 0.7254 0.2657 0.0000
vt 0.7254 0.7335 0.0000
vt 0.0322 0.0225 0.0000
vt 0.0322 0.3108 0.0000
vt 0.0329 0.0218 0.0000
vt 0.0329 0.3114 0.0000
vt 0.8941 0.0633 0.0000
vt 0.8941 0.5298 0.0000
vt 0.8947 0.0626 0.0000
vt 0.8947 0.5305 0.0000
vt 0.3747 0.1191 0.0000
vt 0.3747 0.4074 0.0000
vt 0.3754 0.1184 0.0000
vt 0.3754 0.4080 0.0000
vt 0.7305 0.2610 0.0000
vt 0.7305 0.7382 0.0000
vt 0.0380 0.0171 0.0000
vt 0.0380 0.3161 0.0000
vt 0.8999 0.0579 0.0000
vt 0.8999 0.5351 0.0000
vt 0.3806 0.1137 0.0000
vt 0.3806 0.4127 0.0000
vt 0.7355 0.7428 0.0000
vt 0.7355 0.2564 0.0000
vt 0.0430 0.3207 0.0000
vt 0.0430 0.0126 0.0000
vt 0.9050 0.5397 0.0000
vt 0.9050 0.0534 0.0000
vt 0.3856 0.4173 0.0000
vt 0.3856 0.1092 0.0000
vt 0.7349 0.7422 0.0000
vt 0.7349 0.2570 0.0000
vt 0.0423 0.3201 0.0000
vt 0.0423 0.0131 0.0000
vt 0.9043 0.5392 0.0000
vt 0.9043 0.0539 0.0000
vt 0.3849 0.4167 0.0000
vt 0.3849 0.1097 0.0000
vt 0.7317 0.2600 0.0000
vt 0.7317 0.7392 0.0000
vt 0.0391 0.0161 0.0000
vt 0.0391 0.3171 0.0000
vt 0.9011 0.0569 0.0000
vt 0.9011 0.5361 0.0000
vt 0.3817 0.1127 0.0000
vt 0.3817 0.4137 0.0000
vt 0.7327 0.2590 0.0000
vt 0.7327 0.7402 0.0000
vt 0.7337 0.2580 0.0000
vt 0.7337 0.7412 0.0000
vt 0.0402 0.0151 0.0000
vt 0.0402 0.3181 0.0000
vt 0.0412 0.0141 0.0000
vt 0.0412 0.3191 0.0000
vt 0.9021 0.0559 0.0000
vt 0.9021 0.5371 0.0000
vt 0.9031 0.0549 0.0000
vt 0.9031 0.5381 0.0000
vt 0.3827 0.1117 0.0000
vt 0.3827 0.4147 0.0000
vt 0.3838 0.1107 0.0000
vt 0.3838 0.4157 0.0000
# 192 texture coords

g Picture_05
s off
f 1/1/1 2/2/1 3/3/1 
f 3/3/1 4/4/1 1/1/1 
f 5/5/2 6/6/2 7/7/2 
f 7/7/2 8/8/2 5/5/2 
f 6/9/3 9/10/3 10/11/3 
f 10/11/3 7/12/3 6/9/3 
f 9/13/4 11/14/4 12/15/4 
f 12/15/4 10/16/4 9/13/4 
f 11/17/5 5/18/5 8/19/5 
f 8/19/5 12/20/5 11/17/5 
f 13/21/6 14/22/7 15/23/8 
f 15/23/8 16/24/9 13/21/6 
f 17/25/10 18/26/11 14/27/7 
f 14/27/7 13/28/6 17/25/10 
f 19/29/12 20/30/13 18/31/11 
f 18/31/11 17/32/10 19/29/12 
f 16/33/9 15/34/8 20/35/13 
f 20/35/13 19/36/12 16/33/9 
f 21/37/14 22/38/14 23/39/14 
f 23/39/14 24/40/14 21/37/14 
f 25/41/15 26/42/16 27/43/17 
f 27/43/17 28/44/18 25/41/15 
f 26/45/16 29/46/19 30/47/20 
f 30/47/20 27/48/17 26/45/16 
f 29/49/19 31/50/21 32/51/22 
f 32/51/22 30/52/20 29/49/19 
f 31/53/21 25/54/15 28/55/18 
f 28/55/18 32/56/22 31/53/21 
f 22/57/23 21/58/23 5/18/23 
f 5/18/23 11/17/23 22/57/23 
f 21/59/24 24/60/24 6/6/24 
f 6/6/24 5/5/24 21/59/24 
f 24/61/25 23/62/25 9/10/25 
f 9/10/25 6/9/25 24/61/25 
f 23/63/26 22/64/26 11/14/26 
f 11/14/26 9/13/26 23/63/26 
f 33/65/1 34/66/27 35/67/28 
f 35/67/28 36/68/1 33/65/1 
f 37/69/1 38/70/29 34/71/27 
f 34/71/27 33/72/1 37/69/1 
f 39/73/1 40/74/30 38/75/29 
f 38/75/29 37/76/1 39/73/1 
f 36/77/1 35/78/28 40/79/30 
f 40/79/30 39/80/1 36/77/1 
f 13/21/6 16/24/9 2/81/31 
f 2/81/31 1/82/32 13/21/6 
f 16/33/9 19/36/12 3/83/33 
f 3/83/33 2/84/31 16/33/9 
f 19/29/12 17/32/10 4/85/34 
f 4/85/34 3/86/33 19/29/12 
f 17/25/10 13/28/6 1/87/32 
f 1/87/32 4/88/34 17/25/10 
f 26/42/16 25/41/15 41/89/35 
f 41/89/35 42/90/36 26/42/16 
f 29/46/19 26/45/16 42/91/36 
f 42/91/36 43/92/37 29/46/19 
f 31/50/21 29/49/19 43/93/37 
f 43/93/37 44/94/38 31/50/21 
f 25/54/15 31/53/21 44/95/38 
f 44/95/38 41/96/35 25/54/15 
f 14/22/7 45/97/39 46/98/40 
f 46/98/40 15/23/8 14/22/7 
f 18/26/11 47/99/41 45/100/39 
f 45/100/39 14/27/7 18/26/11 
f 20/30/13 48/101/42 47/102/41 
f 47/102/41 18/31/11 20/30/13 
f 15/34/8 46/103/40 48/104/42 
f 48/104/42 20/35/13 15/34/8 
f 45/97/39 49/105/43 50/106/44 
f 50/106/44 46/98/40 45/97/39 
f 49/105/43 42/90/36 41/89/35 
f 41/89/35 50/106/44 49/105/43 
f 47/99/41 51/107/45 49/108/43 
f 49/108/43 45/100/39 47/99/41 
f 51/107/45 43/92/37 42/91/36 
f 42/91/36 49/108/43 51/107/45 
f 48/101/42 52/109/46 51/110/45 
f 51/110/45 47/102/41 48/101/42 
f 52/109/46 44/94/38 43/93/37 
f 43/93/37 51/110/45 52/109/46 
f 46/103/40 50/111/44 52/112/46 
f 52/112/46 48/104/42 46/103/40 
f 50/111/44 41/96/35 44/95/38 
f 44/95/38 52/112/46 50/111/44 
f 33/65/47 36/68/48 53/113/49 
f 53/113/49 54/114/50 33/65/47 
f 37/69/51 33/72/47 54/115/50 
f 54/115/50 55/116/52 37/69/51 
f 39/73/53 37/76/51 55/117/52 
f 55/117/52 56/118/54 39/73/53 
f 36/77/48 39/80/53 56/119/54 
f 56/119/54 53/120/49 36/77/48 
f 27/43/17 57/121/55 58/122/56 
f 58/122/56 28/44/18 27/43/17 
f 30/47/20 59/123/57 57/124/55 
f 57/124/55 27/48/17 30/47/20 
f 32/51/22 60/125/58 59/126/57 
f 59/126/57 30/52/20 32/51/22 
f 28/55/18 58/127/56 60/128/58 
f 60/128/58 32/56/22 28/55/18 
f 57/121/55 61/129/59 62/130/60 
f 62/130/60 58/122/56 57/121/55 
f 61/129/59 63/131/61 64/132/62 
f 64/132/62 62/130/60 61/129/59 
f 63/131/61 54/114/50 53/113/49 
f 53/113/49 64/132/62 63/131/61 
f 59/123/57 65/133/63 61/134/59 
f 61/134/59 57/124/55 59/123/57 
f 65/133/63 66/135/64 63/136/61 
f 63/136/61 61/134/59 65/133/63 
f 66/135/64 55/116/52 54/115/50 
f 54/115/50 63/136/61 66/135/64 
f 60/125/58 67/137/65 65/138/63 
f 65/138/63 59/126/57 60/125/58 
f 67/137/65 68/139/66 66/140/64 
f 66/140/64 65/138/63 67/137/65 
f 68/139/66 56/118/54 55/117/52 
f 55/117/52 66/140/64 68/139/66 
f 58/127/56 62/141/60 67/142/65 
f 67/142/65 60/128/58 58/127/56 
f 62/141/60 64/143/62 68/144/66 
f 68/144/66 67/142/65 62/141/60 
f 64/143/62 53/120/49 56/119/54 
f 56/119/54 68/144/66 64/143/62 
f 69/145/67 70/146/68 35/67/28 
f 35/67/28 34/66/27 69/145/67 
f 71/147/69 69/148/67 34/71/27 
f 34/71/27 38/70/29 71/147/69 
f 72/149/70 71/150/69 38/75/29 
f 38/75/29 40/74/30 72/149/70 
f 70/151/68 72/152/70 40/79/30 
f 40/79/30 35/78/28 70/151/68 
f 8/8/1 7/7/1 73/153/71 
f 73/153/71 74/154/72 8/8/1 
f 12/20/1 8/19/1 74/155/72 
f 74/155/72 75/156/73 12/20/1 
f 10/16/1 12/15/1 75/157/73 
f 75/157/73 76/158/74 10/16/1 
f 7/12/1 10/11/1 76/159/74 
f 76/159/74 73/160/71 7/12/1 
f 74/154/72 73/153/71 77/161/75 
f 77/161/75 78/162/76 74/154/72 
f 75/156/73 74/155/72 78/163/76 
f 78/163/76 79/164/77 75/156/73 
f 76/158/74 75/157/73 79/165/77 
f 79/165/77 80/166/78 76/158/74 
f 73/160/71 76/159/74 80/167/78 
f 80/167/78 77/168/75 73/160/71 
f 69/145/67 81/169/79 82/170/80 
f 82/170/80 70/146/68 69/145/67 
f 71/147/69 83/171/81 81/172/79 
f 81/172/79 69/148/67 71/147/69 
f 72/149/70 84/173/82 83/174/81 
f 83/174/81 71/150/69 72/149/70 
f 70/151/68 82/175/80 84/176/82 
f 84/176/82 72/152/70 70/151/68 
f 81/169/79 85/177/83 86/178/84 
f 86/178/84 82/170/80 81/169/79 
f 85/177/83 87/179/85 88/180/86 
f 88/180/86 86/178/84 85/177/83 
f 87/179/85 78/162/76 77/161/75 
f 77/161/75 88/180/86 87/179/85 
f 83/171/81 89/181/87 85/182/83 
f 85/182/83 81/172/79 83/171/81 
f 89/181/87 90/183/88 87/184/85 
f 87/184/85 85/182/83 89/181/87 
f 90/183/88 79/164/77 78/163/76 
f 78/163/76 87/184/85 90/183/88 
f 84/173/82 91/185/89 89/186/87 
f 89/186/87 83/174/81 84/173/82 
f 91/185/89 92/187/90 90/188/88 
f 90/188/88 89/186/87 91/185/89 
f 92/187/90 80/166/78 79/165/77 
f 79/165/77 90/188/88 92/187/90 
f 82/175/80 86/189/84 91/190/89 
f 91/190/89 84/176/82 82/175/80 
f 86/189/84 88/191/86 92/192/90 
f 92/192/90 91/190/89 86/189/84 
f 88/191/86 77/168/75 80/167/78 
f 80/167/78 92/192/90 88/191/86 
# 180 faces

