# 3ds Max Wavefront OBJ Exporter v0.97b - (c)2007 guruware
# File Created: 20.03.2020 13:47:42

#
# object Object007
#

v  -0.4998 0.0000 0.4678
v  -0.4998 0.1571 0.4678
v  -0.4746 0.1571 0.4678
v  -0.4746 0.0000 0.4678
v  -0.4998 0.1633 0.4709
v  -0.4998 0.1641 0.4748
v  -0.4746 0.1641 0.4748
v  -0.4746 0.1633 0.4709
v  -0.4998 0.1610 0.4686
v  -0.4746 0.1610 0.4686
v  -0.4998 0.1641 -0.5000
v  -0.4998 0.1641 -0.4748
v  0.4680 0.1641 -0.4748
v  0.4680 0.1641 -0.5000
v  0.4680 0.0022 -0.4678
v  0.4680 0.1571 -0.4678
v  -0.4998 0.1571 -0.4678
v  -0.4998 0.0000 -0.4678
v  -0.4998 0.1633 -0.4709
v  -0.4998 0.1610 -0.4686
v  -0.4998 0.0000 -0.5000
v  0.4680 0.1633 -0.4709
v  0.4680 0.1610 -0.4686
v  0.4750 0.1641 0.5000
v  0.5002 0.1641 0.5000
v  0.5002 0.1641 -0.4678
v  0.4750 0.1641 -0.4678
v  0.4680 0.0000 0.5000
v  0.4680 0.1571 0.5000
v  0.4680 0.0000 -0.4678
v  0.4688 0.1610 0.5000
v  0.4688 0.1610 -0.4678
v  0.4711 0.1633 0.5000
v  0.4711 0.1633 -0.4678
v  -0.4998 0.1641 0.5000
v  -0.4746 0.1641 0.5000
v  -0.4676 0.1571 0.5000
v  -0.4676 0.0000 0.5000
v  -0.4676 0.0000 0.4748
v  -0.4676 0.1571 0.4748
v  -0.4684 0.1610 0.5000
v  -0.4684 0.1610 0.4748
v  -0.4707 0.1633 0.5000
v  -0.4707 0.1633 0.4748
v  0.5002 0.1641 -0.5000
v  0.4697 0.0022 -0.4678
# 46 vertices

vn 0.0000 0.0000 -1.0000
vn 0.0000 0.9805 -0.1967
vn 0.0000 0.1961 -0.9806
vn 0.0000 0.7071 -0.7071
vn 0.0000 1.0000 0.0000
vn 0.0000 0.9951 0.0985
vn 0.0000 0.0000 1.0000
vn 0.0000 0.0985 0.9951
vn -1.0000 0.0000 0.0001
vn 0.0000 0.8817 0.4719
vn 0.0000 0.7071 0.7071
vn 0.0000 0.1961 0.9806
vn -1.0000 0.0000 0.0000
vn -0.9806 0.1962 0.0000
vn -0.1961 0.9806 0.0000
vn -0.7071 0.7071 0.0000
vn 1.0000 0.0000 0.0000
vn 0.9806 0.1961 0.0000
vn 0.1961 0.9806 0.0000
vn 0.7071 0.7071 0.0000
vn -0.1924 0.9622 0.1925
vn -0.6982 0.1404 0.7020
vn -0.5767 0.5773 0.5780
vn 0.7071 0.0000 -0.7071
vn 0.1924 0.9621 -0.1930
vn 0.7001 0.1400 -0.7002
vn 0.5772 0.5774 -0.5775
# 27 vertex normals

vt 0.0695 0.5332 0.0000
vt 0.0695 0.3779 0.0000
vt 0.0944 0.3779 0.0000
vt 0.0944 0.5332 0.0000
vt 0.0697 0.5373 0.0000
vt 0.0697 0.5411 0.0000
vt 0.0448 0.5411 0.0000
vt 0.0448 0.5373 0.0000
vt 0.0695 0.3741 0.0000
vt 0.0944 0.3741 0.0000
vt 0.0695 0.3718 0.0000
vt 0.0944 0.3718 0.0000
vt 0.9892 0.0010 0.0000
vt 0.9892 0.0259 0.0000
vt 0.0328 0.0259 0.0000
vt 0.0328 0.0010 0.0000
vt 0.0426 0.1922 0.0000
vt 0.0426 0.0391 0.0000
vt 0.9990 0.0391 0.0000
vt 0.9990 0.1943 0.0000
vt 0.0640 0.5332 0.0000
vt 0.0601 0.5340 0.0000
vt 0.0352 0.5340 0.0000
vt 0.0663 0.5309 0.0000
vt 0.0670 0.5271 0.0000
vt 0.0670 0.3718 0.0000
vt 0.0352 0.3718 0.0000
vt 0.9892 0.0298 0.0000
vt 0.0328 0.0298 0.0000
vt 0.9892 0.0320 0.0000
vt 0.0328 0.0320 0.0000
vt 0.0426 0.0352 0.0000
vt 0.9990 0.0352 0.0000
vt 0.0259 0.9892 0.0000
vt 0.0010 0.9892 0.0000
vt 0.0010 0.0328 0.0000
vt 0.0259 0.0328 0.0000
vt 0.0409 0.3598 0.0000
vt 0.0409 0.2045 0.0000
vt 0.9973 0.2045 0.0000
vt 0.9973 0.3598 0.0000
vt 0.0409 0.2007 0.0000
vt 0.9973 0.2007 0.0000
vt 0.0298 0.9892 0.0000
vt 0.0298 0.0328 0.0000
vt 0.0320 0.9892 0.0000
vt 0.0320 0.0328 0.0000
vt 0.0697 0.5660 0.0000
vt 0.0448 0.5660 0.0000
vt 0.0980 0.5271 0.0000
vt 0.0980 0.3718 0.0000
vt 0.1229 0.3718 0.0000
vt 0.1229 0.5271 0.0000
vt 0.0980 0.5309 0.0000
vt 0.1229 0.5309 0.0000
vt 0.0409 0.5660 0.0000
vt 0.0409 0.5411 0.0000
vt 0.0980 0.5332 0.0000
vt 0.1229 0.5332 0.0000
vt 0.0010 0.0010 0.0000
vt 0.0409 0.1922 0.0000
vt 0.0418 0.0352 0.0000
vt 0.1298 0.3718 0.0000
vt 0.1298 0.5271 0.0000
vt 0.1290 0.5309 0.0000
vt 0.1267 0.5332 0.0000
# 66 texture coords

o Object007
g Object007
s off
f 1/1/1 2/2/1 3/3/1 
f 3/3/1 4/4/1 1/1/1 
f 5/5/2 6/6/2 7/7/2 
f 7/7/2 8/8/2 5/5/2 
f 2/2/3 9/9/3 10/10/3 
f 10/10/3 3/3/3 2/2/3 
f 9/9/4 5/11/4 8/12/4 
f 8/12/4 10/10/4 9/9/4 
s 1
f 11/13/5 12/14/6 13/15/6 
f 13/15/6 14/16/5 11/13/5 
s 4
f 15/17/7 16/18/8 17/19/8 
f 17/19/8 18/20/7 15/17/7 
s 2
f 19/21/9 12/22/9 11/23/9 
f 20/24/9 19/21/9 11/23/9 
f 17/25/9 20/24/9 11/23/9 
f 18/26/9 17/25/9 11/23/9 
f 18/26/9 11/23/9 21/27/9 
s 1
f 19/28/10 22/29/10 13/15/6 
f 13/15/6 12/14/6 19/28/10 
f 20/30/11 23/31/11 22/29/10 
f 22/29/10 19/28/10 20/30/11 
s 4
f 17/19/8 16/18/8 23/32/12 
f 23/32/12 20/33/12 17/19/8 
s off
f 24/34/5 25/35/5 26/36/5 
f 26/36/5 27/37/5 24/34/5 
f 28/38/13 29/39/13 16/40/13 
f 16/40/13 30/41/13 28/38/13 
f 29/39/14 31/42/14 32/43/14 
f 32/43/14 16/40/14 29/39/14 
f 33/44/15 24/34/15 27/37/15 
f 27/37/15 34/45/15 33/44/15 
f 31/46/16 33/44/16 34/45/16 
f 34/45/16 32/47/16 31/46/16 
f 35/48/5 36/49/5 7/7/5 
f 7/7/5 6/6/5 35/48/5 
f 37/50/17 38/51/17 39/52/17 
f 39/52/17 40/53/17 37/50/17 
f 41/54/18 37/50/18 40/53/18 
f 40/53/18 42/55/18 41/54/18 
f 36/49/19 43/56/19 44/57/19 
f 44/57/19 7/7/19 36/49/19 
f 43/58/20 41/54/20 42/55/20 
f 42/55/20 44/59/20 43/58/20 
f 14/16/5 13/15/5 27/37/5 
f 27/37/5 26/36/5 45/60/5 
f 14/16/5 27/37/5 45/60/5 
f 16/18/7 15/17/7 46/61/7 
f 13/15/21 22/29/21 34/45/21 
f 34/45/21 27/37/21 13/15/21 
f 23/32/22 16/18/22 32/62/22 
f 22/29/23 23/31/23 32/47/23 
f 32/47/23 34/45/23 22/29/23 
f 4/63/24 3/64/24 40/53/24 
f 40/53/24 39/52/24 4/63/24 
f 8/8/25 7/7/25 44/57/25 
f 3/64/26 10/65/26 42/55/26 
f 42/55/26 40/53/26 3/64/26 
f 10/65/27 8/66/27 44/59/27 
f 44/59/27 42/55/27 10/65/27 
# 59 faces

