# 3ds Max Wavefront OBJ Exporter v0.97b - (c)2007 guruware
# File Created: 18.08.2020 20:12:15

#
# object SM_Glass_Top
#

v  -0.3162 0.8749 -0.0730
v  0.3177 0.8749 -0.0730
v  0.3177 1.0948 -0.0730
v  -0.3162 1.0948 -0.0730
v  -0.3158 0.6327 -0.0730
v  0.3181 0.6327 -0.0730
v  0.3181 0.8660 -0.0730
v  -0.3158 0.8660 -0.0730
# 8 vertices

vn 0.0000 0.0000 1.0000
# 1 vertex normals

vt 0.6544 0.8827 0.0000
vt 0.9404 0.8827 0.0000
vt 0.9404 0.9834 0.0000
vt 0.6544 0.9834 0.0000
vt 0.1708 0.7363 0.0000
vt 0.4632 0.7363 0.0000
vt 0.4632 0.8408 0.0000
vt 0.1708 0.8408 0.0000
# 8 texture coords

g SM_Glass_Top
s off
f 1/1/1 2/2/1 3/3/1 
f 3/3/1 4/4/1 1/1/1 
f 5/5/1 6/6/1 7/7/1 
f 7/7/1 8/8/1 5/5/1 
# 4 faces

#
# object SM_Glass_Down
#

v  -0.3168 0.0760 -0.0529
v  0.3171 0.0760 -0.0529
v  0.3171 0.5833 -0.0529
v  -0.3168 0.5833 -0.0529
# 4 vertices

vn 0.0000 0.0000 1.0000
# 1 vertex normals

vt 0.0169 0.0033 0.0000
vt 0.3041 0.0033 0.0000
vt 0.3041 0.2347 0.0000
vt 0.0169 0.2347 0.0000
# 4 texture coords

g SM_Glass_Down
s off
f 9/9/2 10/10/2 11/11/2 
f 11/11/2 12/12/2 9/9/2 
# 2 faces

#
# object SM_Glass_Top002
#

v  0.3177 0.8749 -0.0730
v  -0.3162 0.8749 -0.0730
v  -0.3162 1.0948 -0.0730
v  0.3177 1.0948 -0.0730
v  0.3173 0.6327 -0.0730
v  -0.3166 0.6327 -0.0730
v  -0.3166 0.8660 -0.0730
v  0.3173 0.8660 -0.0730
# 8 vertices

vn 0.0000 0.0000 -1.0000
# 1 vertex normals

vt 0.6544 0.8827 0.0000
vt 0.9404 0.8827 0.0000
vt 0.9404 0.9834 0.0000
vt 0.6544 0.9834 0.0000
vt 0.1708 0.7363 0.0000
vt 0.4632 0.7363 0.0000
vt 0.4632 0.8408 0.0000
vt 0.1708 0.8408 0.0000
# 8 texture coords

g SM_Glass_Top002
s off
f 13/13/3 14/14/3 15/15/3 
f 15/15/3 16/16/3 13/13/3 
f 17/17/3 18/18/3 19/19/3 
f 19/19/3 20/20/3 17/17/3 
# 4 faces

#
# object SM_Glass_Down001
#

v  0.3171 0.0760 -0.0529
v  -0.3168 0.0760 -0.0529
v  -0.3168 0.5833 -0.0529
v  0.3171 0.5833 -0.0529
# 4 vertices

vn 0.0000 0.0000 -1.0000
# 1 vertex normals

vt 0.0169 0.0033 0.0000
vt 0.3041 0.0033 0.0000
vt 0.3041 0.2347 0.0000
vt 0.0169 0.2347 0.0000
# 4 texture coords

g SM_Glass_Down001
s off
f 21/21/4 22/22/4 23/23/4 
f 23/23/4 24/24/4 21/21/4 
# 2 faces

